<svg width="61" height="87" viewBox="0 0 61 87" fill="none" xmlns="http://www.w3.org/2000/svg">
<path d="M33.8841 59.8753C19.3259 59.8753 7.52414 48.0735 7.52414 33.5153C7.52414 18.957 19.3259 7.15527 33.8841 7.15527C48.4424 7.15527 60.2441 18.957 60.2441 33.5153C60.2441 48.0735 48.4424 59.8753 33.8841 59.8753Z" fill="#8D5E2F"/>
<path d="M33.8838 0.565186C15.6838 0.565186 0.933788 15.3152 0.933788 33.5152C0.933788 51.7152 15.6838 66.4752 33.8838 66.4752V82.7452" stroke="#8D5E2F" stroke-miterlimit="10"/>
<path d="M33.884 53.9652C22.5898 53.9652 13.434 44.8094 13.434 33.5152C13.434 22.221 22.5898 13.0652 33.884 13.0652C45.1782 13.0652 54.334 22.221 54.334 33.5152C54.334 44.8094 45.1782 53.9652 33.884 53.9652Z" fill="#EABF7C"/>
<path d="M32.4443 41.5652V29.6612L29.9003 30.0692V26.8292L36.3083 25.8692V41.5652H32.4443Z" fill="#8D5E2F"/>
<path d="M33.8838 86.2852C32.3871 86.2852 31.1738 85.0719 31.1738 83.5752C31.1738 82.0785 32.3871 80.8652 33.8838 80.8652C35.3804 80.8652 36.5938 82.0785 36.5938 83.5752C36.5938 85.0719 35.3804 86.2852 33.8838 86.2852Z" fill="#8D5E2F"/>
</svg>
