<svg width="61" height="87" viewBox="0 0 61 87" fill="none" xmlns="http://www.w3.org/2000/svg">
<path d="M27.1139 59.8753C41.6721 59.8753 53.4739 48.0735 53.4739 33.5153C53.4739 18.957 41.6721 7.15527 27.1139 7.15527C12.5557 7.15527 0.753906 18.957 0.753906 33.5153C0.753906 48.0735 12.5557 59.8753 27.1139 59.8753Z" fill="#8D5E2F"/>
<path d="M27.1143 0.565186C45.3143 0.565186 60.0643 15.3152 60.0643 33.5152C60.0643 51.7152 45.3143 66.4752 27.1143 66.4752V82.7452" stroke="#8D5E2F" stroke-miterlimit="10"/>
<path d="M27.1141 53.9652C38.4083 53.9652 47.5641 44.8094 47.5641 33.5152C47.5641 22.221 38.4083 13.0652 27.1141 13.0652C15.8198 13.0652 6.66406 22.221 6.66406 33.5152C6.66406 44.8094 15.8198 53.9652 27.1141 53.9652Z" fill="#EABF7C"/>
<path d="M23.0995 41.5652V39.7652C23.5315 38.8692 24.0835 38.0692 24.7555 37.3652C25.4435 36.6612 26.1875 35.9492 26.9875 35.2292C27.7235 34.5572 28.3075 34.0212 28.7395 33.6212C29.1715 33.2212 29.4755 32.8372 29.6515 32.4692C29.8435 32.1012 29.9395 31.6612 29.9395 31.1492C29.9395 29.8372 29.0915 29.1812 27.3955 29.1812C26.7395 29.1812 26.0915 29.2612 25.4515 29.4212C24.8115 29.5652 24.2035 29.7492 23.6275 29.9732V26.6372C24.2515 26.4132 24.9795 26.2292 25.8115 26.0852C26.6595 25.9412 27.4995 25.8692 28.3315 25.8692C30.1395 25.8692 31.5155 26.3252 32.4595 27.2372C33.4035 28.1492 33.8755 29.4292 33.8755 31.0772C33.8755 32.0052 33.6595 32.8132 33.2275 33.5012C32.7955 34.1732 32.1475 34.8852 31.2835 35.6372C30.6435 36.1812 30.0675 36.6852 29.5555 37.1492C29.0595 37.5972 28.6355 38.0772 28.2835 38.5892H34.0195V41.5652H23.0995Z" fill="#8D5E2F"/>
<path d="M27.1143 86.2852C28.611 86.2852 29.8243 85.0719 29.8243 83.5752C29.8243 82.0785 28.611 80.8652 27.1143 80.8652C25.6176 80.8652 24.4043 82.0785 24.4043 83.5752C24.4043 85.0719 25.6176 86.2852 27.1143 86.2852Z" fill="#8D5E2F"/>
</svg>
