<svg width="61" height="87" viewBox="0 0 61 87" fill="none" xmlns="http://www.w3.org/2000/svg">
<path d="M27.2943 60.5952C12.7361 60.5952 0.934296 48.7935 0.934296 34.2352C0.934296 19.677 12.7361 7.87524 27.2943 7.87524C41.8525 7.87524 53.6543 19.677 53.6543 34.2352C53.6543 48.7935 41.8525 60.5952 27.2943 60.5952Z" fill="#8D5E2F"/>
<path d="M27.2941 1.28516C45.4941 1.28516 60.2441 16.0352 60.2441 34.2352C60.2441 52.4352 45.4941 67.1852 27.2941 67.1852V83.4552" stroke="#8D5E2F" stroke-miterlimit="10"/>
<path d="M27.2941 54.6852C15.9999 54.6852 6.84414 45.5294 6.84414 34.2352C6.84414 22.9409 15.9999 13.7852 27.2941 13.7852C38.5884 13.7852 47.7441 22.9409 47.7441 34.2352C47.7441 45.5294 38.5884 54.6852 27.2941 54.6852Z" fill="#EABF7C"/>
<path d="M27.3883 42.8052C26.9403 42.8052 26.4123 42.7732 25.8043 42.7092C25.1963 42.6452 24.5963 42.5572 24.0043 42.4452C23.4283 42.3172 22.9483 42.1732 22.5643 42.0132V38.7972C23.2203 39.1012 23.9243 39.3172 24.6763 39.4452C25.4283 39.5732 26.1323 39.6372 26.7883 39.6372C27.7963 39.6372 28.5483 39.5012 29.0443 39.2292C29.5563 38.9572 29.8123 38.4612 29.8123 37.7412C29.8123 37.1812 29.5963 36.7732 29.1643 36.5172C28.7483 36.2612 28.1403 36.1332 27.3403 36.1332H24.8203L25.0843 33.4212H27.1723C27.9883 33.4212 28.5803 33.2932 28.9483 33.0372C29.3163 32.7652 29.5003 32.3332 29.5003 31.7412C29.5003 31.1812 29.2763 30.7572 28.8283 30.4692C28.3963 30.1812 27.6923 30.0372 26.7163 30.0372C26.0283 30.0372 25.3323 30.1172 24.6283 30.2772C23.9243 30.4212 23.3163 30.6132 22.8043 30.8532V27.6852C23.3643 27.4612 24.0603 27.2692 24.8923 27.1092C25.7403 26.9492 26.5883 26.8692 27.4363 26.8692C29.3883 26.8692 30.8763 27.2852 31.9003 28.1172C32.9403 28.9332 33.4603 29.9812 33.4603 31.2612C33.4603 31.9972 33.3003 32.6852 32.9803 33.3252C32.6763 33.9652 32.2043 34.4452 31.5643 34.7652C32.3003 35.0212 32.8443 35.4372 33.1963 36.0132C33.5643 36.5892 33.7483 37.2852 33.7483 38.1012C33.7483 39.1732 33.4763 40.0612 32.9323 40.7652C32.3883 41.4532 31.6363 41.9652 30.6763 42.3012C29.7323 42.6372 28.6363 42.8052 27.3883 42.8052Z" fill="#8D5E2F"/>
<path d="M24.5839 84.2852C24.5839 82.7852 25.7939 81.5752 27.2939 81.5752C28.7939 81.5752 30.0039 82.7852 30.0039 84.2852C30.0039 85.7852 28.7939 86.9952 27.2939 86.9952C25.7939 86.9952 24.5839 85.7852 24.5839 84.2852Z" fill="#8D5E2F"/>
</svg>
