<svg width="61" height="87" viewBox="0 0 61 87" fill="none" xmlns="http://www.w3.org/2000/svg">
<path d="M33.7038 60.5952C48.262 60.5952 60.0638 48.7935 60.0638 34.2352C60.0638 19.677 48.262 7.87524 33.7038 7.87524C19.1455 7.87524 7.34375 19.677 7.34375 34.2352C7.34375 48.7935 19.1455 60.5952 33.7038 60.5952Z" fill="#8D5E2F"/>
<path d="M33.7039 1.28516C15.5039 1.28516 0.753906 16.0352 0.753906 34.2352C0.753906 52.4352 15.5039 67.1852 33.7039 67.1852V83.4552" stroke="#8D5E2F" stroke-miterlimit="10"/>
<path d="M33.7039 54.6852C44.9981 54.6852 54.1539 45.5294 54.1539 34.2352C54.1539 22.9409 44.9981 13.7852 33.7039 13.7852C22.4097 13.7852 13.2539 22.9409 13.2539 34.2352C13.2539 45.5294 22.4097 54.6852 33.7039 54.6852Z" fill="#EABF7C"/>
<path d="M34.1649 42.5652V39.4932H26.8929V36.9252L34.6449 27.1092H38.0289V36.3732H39.4689V39.4932H38.0289V42.5652H34.1649ZM30.6129 36.5172H34.8129V31.3572L30.6129 36.5172Z" fill="#8D5E2F"/>
<path d="M36.4141 84.2852C36.4141 82.7852 35.2041 81.5752 33.7041 81.5752C32.2041 81.5752 30.9941 82.7852 30.9941 84.2852C30.9941 85.7852 32.2041 86.9952 33.7041 86.9952C35.2041 86.9952 36.4141 85.7852 36.4141 84.2852Z" fill="#8D5E2F"/>
</svg>
