<svg width="64" height="88" viewBox="0 0 64 88" fill="none" xmlns="http://www.w3.org/2000/svg">
<path d="M33.2032 87.4349C34.6999 87.4349 35.9132 86.2216 35.9132 84.7249C35.9132 83.2282 34.6999 82.0149 33.2032 82.0149C31.7065 82.0149 30.4932 83.2282 30.4932 84.7249C30.4932 86.2216 31.7065 87.4349 33.2032 87.4349Z" fill="#8D5E2F"/>
<path d="M37.4596 59.5191C51.8271 57.1679 61.5683 43.6147 59.2172 29.2472C56.866 14.8797 43.3129 5.13853 28.9453 7.48969C14.5778 9.84084 4.83665 23.394 7.1878 37.7615C9.53896 52.129 23.0921 61.8702 37.4596 59.5191Z" fill="#8D5E2F"/>
<path d="M36.4969 53.6717C47.6431 51.8511 55.2031 41.3393 53.3824 30.193C51.5618 19.0468 41.0501 11.4868 29.9038 13.3075C18.7575 15.1281 11.1976 25.6399 13.0182 36.7861C14.8389 47.9324 25.3506 55.4923 36.4969 53.6717Z" fill="#EABF7C"/>
<path d="M33.517 42.8052C31.309 42.8052 29.677 42.4212 28.621 41.6532C27.565 40.8692 27.037 39.7092 27.037 38.1732C27.037 37.3892 27.237 36.6692 27.637 36.0132C28.037 35.3572 28.589 34.8772 29.293 34.5732C28.653 34.2532 28.181 33.8212 27.877 33.2772C27.573 32.7172 27.421 32.1252 27.421 31.5012C27.421 30.0932 27.901 28.9732 28.861 28.1412C29.837 27.2932 31.389 26.8692 33.517 26.8692C35.693 26.8692 37.253 27.2932 38.197 28.1412C39.141 28.9732 39.613 30.0932 39.613 31.5012C39.613 32.1412 39.461 32.7572 39.157 33.3492C38.869 33.9252 38.381 34.3812 37.693 34.7172C39.245 35.3572 40.021 36.5092 40.021 38.1732C40.021 39.7092 39.485 40.8692 38.413 41.6532C37.357 42.4212 35.725 42.8052 33.517 42.8052ZM34.117 33.6132C34.757 33.4212 35.221 33.1812 35.509 32.8932C35.797 32.5892 35.941 32.1492 35.941 31.5732C35.941 30.3732 35.133 29.7732 33.517 29.7732C32.717 29.7732 32.109 29.9172 31.693 30.2052C31.293 30.4772 31.093 30.9332 31.093 31.5732C31.093 32.5332 31.613 33.1172 32.653 33.3252L34.117 33.6132ZM33.517 39.9252C34.477 39.9252 35.181 39.7812 35.629 39.4932C36.093 39.2052 36.325 38.7412 36.325 38.1012C36.325 37.5412 36.173 37.1332 35.869 36.8772C35.565 36.6052 35.069 36.3972 34.381 36.2532L32.629 35.8932C32.037 36.0212 31.565 36.2372 31.213 36.5412C30.877 36.8452 30.709 37.3252 30.709 37.9812C30.709 38.6692 30.941 39.1652 31.405 39.4692C31.869 39.7732 32.573 39.9252 33.517 39.9252Z" fill="#8D5E2F"/>
<path d="M33.7041 0.715088C15.5041 0.715088 0.754101 15.4651 0.754101 33.6651C0.754101 51.8651 15.5041 66.6151 33.7041 66.6151V82.8851" stroke="#8D5E2F" stroke-miterlimit="10"/>
</svg>
