<svg width="64" height="88" viewBox="0 0 64 88" fill="none" xmlns="http://www.w3.org/2000/svg">
<path d="M30.7949 87.4349C29.2982 87.4349 28.0849 86.2216 28.0849 84.7249C28.0849 83.2282 29.2982 82.0149 30.7949 82.0149C32.2916 82.0149 33.5049 83.2282 33.5049 84.7249C33.5049 86.2216 32.2916 87.4349 30.7949 87.4349Z" fill="#8D5E2F"/>
<path d="M26.5384 59.5191C12.1709 57.1679 2.42972 43.6147 4.78088 29.2472C7.13203 14.8797 20.6852 5.13853 35.0527 7.48969C49.4202 9.84084 59.1614 23.394 56.8102 37.7615C54.4591 52.129 40.9059 61.8702 26.5384 59.5191Z" fill="#8D5E2F"/>
<path d="M27.5012 53.6717C16.3549 51.8511 8.79499 41.3393 10.6156 30.193C12.4362 19.0468 22.948 11.4868 34.0943 13.3075C45.2405 15.1281 52.8005 25.6399 50.9798 36.7861C49.1592 47.9324 38.6474 55.4923 27.5012 53.6717Z" fill="#EABF7C"/>
<path d="M27.3943 42.5652L32.6983 30.0852H26.0743V27.1092H36.9943V29.4132L31.4263 42.5652H27.3943Z" fill="#8D5E2F"/>
<path d="M30.2939 0.715088C48.4939 0.715088 63.2439 15.4651 63.2439 33.6651C63.2439 51.8651 48.4939 66.6151 30.2939 66.6151V82.8851" stroke="#8D5E2F" stroke-miterlimit="10"/>
</svg>
