<svg width="61" height="87" viewBox="0 0 61 87" fill="none" xmlns="http://www.w3.org/2000/svg">
<path d="M27.1139 60.3152C41.6721 60.3152 53.4739 48.5134 53.4739 33.9552C53.4739 19.397 41.6721 7.59521 27.1139 7.59521C12.5557 7.59521 0.753906 19.397 0.753906 33.9552C0.753906 48.5134 12.5557 60.3152 27.1139 60.3152Z" fill="#8D5E2F"/>
<path d="M27.1143 0.995117C45.3143 0.995117 60.0643 15.7451 60.0643 33.9451C60.0643 52.1451 45.3143 66.8951 27.1143 66.8951V83.1651" stroke="#8D5E2F" stroke-miterlimit="10"/>
<path d="M27.1131 54.4051C38.4073 54.4051 47.5631 45.2493 47.5631 33.9551C47.5631 22.6609 38.4073 13.5051 27.1131 13.5051C15.8189 13.5051 6.66309 22.6609 6.66309 33.9551C6.66309 45.2493 15.8189 54.4051 27.1131 54.4051Z" fill="#EABF7C"/>
<path d="M27.7937 41.8052C23.6017 41.8052 21.5057 39.7492 21.5057 35.6372V32.4932C21.5057 31.2132 21.7857 30.0772 22.3457 29.0852C22.9217 28.0772 23.7377 27.2932 24.7937 26.7332C25.8497 26.1572 27.1057 25.8692 28.5617 25.8692C29.3937 25.8692 30.1137 25.9172 30.7217 26.0132C31.3457 26.1092 31.9377 26.2692 32.4977 26.4932V29.6372C31.9697 29.4132 31.4097 29.2532 30.8177 29.1572C30.2257 29.0452 29.5777 28.9892 28.8737 28.9892C27.6417 28.9892 26.7057 29.2452 26.0657 29.7572C25.4417 30.2532 25.1297 30.9012 25.1297 31.7012V32.3012C25.5937 31.9812 26.1537 31.7412 26.8097 31.5812C27.4657 31.4052 28.0657 31.3172 28.6097 31.3172C30.4657 31.3172 31.8257 31.7652 32.6897 32.6612C33.5697 33.5412 34.0097 34.8132 34.0097 36.4772C34.0097 37.5172 33.7937 38.4372 33.3617 39.2372C32.9457 40.0372 32.2817 40.6692 31.3697 41.1332C30.4577 41.5812 29.2657 41.8052 27.7937 41.8052ZM27.8177 39.0212C28.7297 39.0212 29.4097 38.8052 29.8577 38.3732C30.3217 37.9412 30.5537 37.3572 30.5537 36.6212C30.5537 35.8212 30.3537 35.2132 29.9537 34.7972C29.5537 34.3812 28.8577 34.1732 27.8657 34.1732C27.4017 34.1732 26.9297 34.2532 26.4497 34.4132C25.9857 34.5732 25.5457 34.7812 25.1297 35.0372V36.3332C25.1297 38.1252 26.0257 39.0212 27.8177 39.0212Z" fill="#8D5E2F"/>
<path d="M24.4033 84.0052C24.4033 82.5052 25.6133 81.2952 27.1133 81.2952C28.6133 81.2952 29.8233 82.5052 29.8233 84.0052C29.8233 85.5052 28.6133 86.7152 27.1133 86.7152C25.6133 86.7152 24.4033 85.5052 24.4033 84.0052Z" fill="#8D5E2F"/>
</svg>
