<svg width="61" height="87" viewBox="0 0 61 87" fill="none" xmlns="http://www.w3.org/2000/svg">
<path d="M33.8841 60.3152C19.3259 60.3152 7.52414 48.5134 7.52414 33.9552C7.52414 19.397 19.3259 7.59521 33.8841 7.59521C48.4424 7.59521 60.2441 19.397 60.2441 33.9552C60.2441 48.5134 48.4424 60.3152 33.8841 60.3152Z" fill="#8D5E2F"/>
<path d="M33.8838 0.995117C15.6838 0.995117 0.933788 15.7451 0.933788 33.9451C0.933788 52.1451 15.6838 66.8951 33.8838 66.8951V83.1651" stroke="#8D5E2F" stroke-miterlimit="10"/>
<path d="M33.885 54.4051C22.5907 54.4051 13.435 45.2493 13.435 33.9551C13.435 22.6609 22.5907 13.5051 33.885 13.5051C45.1792 13.5051 54.335 22.6609 54.335 33.9551C54.335 45.2493 45.1792 54.4051 33.885 54.4051Z" fill="#EABF7C"/>
<path d="M33.5038 41.8052C33.0398 41.8052 32.5198 41.7732 31.9438 41.7092C31.3838 41.6612 30.8238 41.5812 30.2638 41.4692C29.7198 41.3572 29.2398 41.2132 28.8238 41.0372V37.8212C29.2078 37.9812 29.6398 38.1252 30.1198 38.2532C30.6158 38.3652 31.1038 38.4532 31.5838 38.5172C32.0798 38.5812 32.5198 38.6132 32.9038 38.6132C33.8958 38.6132 34.6238 38.4612 35.0878 38.1572C35.5678 37.8532 35.8078 37.3332 35.8078 36.5972C35.8078 35.9412 35.6398 35.4692 35.3038 35.1812C34.9838 34.8772 34.3598 34.7252 33.4318 34.7252H28.7518V32.7812L29.1598 26.1092H38.7598L38.4718 29.0852H32.4718L32.3038 31.8932H34.3198C36.1918 31.8932 37.5598 32.3092 38.4238 33.1412C39.3038 33.9572 39.7438 35.1572 39.7438 36.7412C39.7438 38.2772 39.2238 39.5092 38.1838 40.4372C37.1598 41.3492 35.5998 41.8052 33.5038 41.8052Z" fill="#8D5E2F"/>
<path d="M36.5947 84.0052C36.5947 82.5052 35.3847 81.2952 33.8847 81.2952C32.3847 81.2952 31.1747 82.5052 31.1747 84.0052C31.1747 85.5052 32.3847 86.7152 33.8847 86.7152C35.3847 86.7152 36.5947 85.5052 36.5947 84.0052Z" fill="#8D5E2F"/>
</svg>
