<svg width="8" height="16" viewBox="0 0 8 16" fill="none" xmlns="http://www.w3.org/2000/svg">
<path d="M0.41164 15.2821C0.289821 15.2317 0.185692 15.1463 0.11242 15.0367C0.0391491 14.9271 2.6562e-05 14.7982 -1.35105e-07 14.6664L4.47675e-07 1.3339C-0.000103974 1.20197 0.0389371 1.07299 0.112179 0.963265C0.185422 0.853543 0.289573 0.768019 0.411447 0.717521C0.533321 0.667023 0.667438 0.65382 0.796819 0.679586C0.9262 0.705351 1.04503 0.768925 1.13826 0.86226L7.80449 7.52849C7.86647 7.5904 7.91564 7.66392 7.94918 7.74485C7.98273 7.82578 8 7.91252 8 8.00013C8 8.08773 7.98273 8.17448 7.94918 8.2554C7.91564 8.33633 7.86647 8.40985 7.80449 8.47176L1.13826 15.138C1.04498 15.2312 0.926155 15.2946 0.796816 15.3203C0.667477 15.346 0.533434 15.3327 0.41164 15.2821Z" fill="black"/>
</svg>
