<svg width="64" height="64" viewBox="0 0 64 64" fill="none" xmlns="http://www.w3.org/2000/svg">
<rect width="64" height="64" rx="32" fill="#8D5E2F"/>
<path fill-rule="evenodd" clip-rule="evenodd" d="M20.457 32.3621H43.543C44.4697 32.3621 45.2998 33.1655 45.2079 34.1059L43.8608 47.8899H20.1392L18.7921 34.1059C18.7003 33.1655 19.5303 32.3621 20.457 32.3621ZM12.4167 49.0566H51.5833C51.8128 49.0566 52 49.2438 52 49.4733V51.5833C52 51.8128 51.8128 52 51.5833 52H12.4167C12.1872 52 12 51.8128 12 51.5833V49.4732C12 49.2438 12.1872 49.0566 12.4167 49.0566ZM47.0536 44.9765C47.0536 42.913 46.6381 40.9466 45.8866 39.1562L45.0331 47.8899H45.5509C46.5021 47.0705 47.0536 46.0998 47.0536 44.9765ZM18.4488 47.8899H18.967L18.1135 39.1565C17.362 40.9468 16.9464 42.9132 16.9464 44.9766C16.9464 46.0998 17.4975 47.0706 18.4488 47.8899ZM25.9377 31.1954C27.7927 30.3782 29.8434 29.9235 32.0005 29.9235C34.1576 29.9235 36.2083 30.3782 38.0632 31.1954H25.9377ZM25.0429 18.9565C25.0429 22.7992 28.1578 25.914 32.0005 25.914C35.8433 25.914 38.958 22.7992 38.958 18.9565C38.958 15.1149 35.8432 12 32.0005 12C28.1578 12 25.0429 15.1149 25.0429 18.9565ZM36.9641 41.5897C37.1569 41.5897 37.3131 41.4334 37.3131 41.2407V40.1781C37.3131 39.9854 37.1569 39.8291 36.9641 39.8291C35.9178 39.8291 35.3928 38.5615 36.1327 37.8217C36.2689 37.6854 36.2689 37.4643 36.1327 37.3281L35.3813 36.5767C35.245 36.4404 35.0239 36.4404 34.8877 36.5767C34.1478 37.3165 32.8803 36.7915 32.8803 35.7453C32.8803 35.5524 32.7241 35.3963 32.5313 35.3963H31.4688C31.2761 35.3963 31.1198 35.5524 31.1198 35.7453C31.1198 36.7916 29.8522 37.3165 29.1123 36.5767C28.9761 36.4404 28.755 36.4404 28.6188 36.5767L27.8673 37.3281C27.7311 37.4643 27.7311 37.6854 27.8673 37.8217C28.6071 38.5615 28.0822 39.8291 27.0359 39.8291C26.8431 39.8291 26.6869 39.9854 26.6869 40.1781V41.2407C26.6869 41.4333 26.8431 41.5897 27.0359 41.5897C28.0822 41.5897 28.6072 42.8573 27.8673 43.5971C27.7311 43.7333 27.7311 43.9544 27.8673 44.0907L28.6188 44.8421C28.755 44.9783 28.9761 44.9783 29.1123 44.8421C29.8531 44.1013 31.1198 44.626 31.1198 45.6736C31.1198 45.8664 31.2761 46.0226 31.4688 46.0226H32.5313C32.724 46.0226 32.8803 45.8664 32.8803 45.6736C32.8803 44.6273 34.1479 44.1023 34.8877 44.8421C35.024 44.9783 35.245 44.9783 35.3813 44.8421L36.1327 44.0907C36.2689 43.9544 36.2689 43.7333 36.1327 43.5971C35.3928 42.8573 35.9178 41.5897 36.9641 41.5897ZM32 38.1564C30.5901 38.1564 29.4471 39.2994 29.4471 40.7093C29.4471 42.1193 30.5901 43.2623 32 43.2623C33.4099 43.2623 34.5529 42.1193 34.5529 40.7093C34.5529 39.2994 33.4099 38.1564 32 38.1564ZM39.5674 44.2843L42.7299 41.1217C42.9577 40.894 42.9577 40.5247 42.7299 40.2968L39.5674 37.1343C39.3397 36.9066 38.9703 36.9066 38.7426 37.1343C38.5148 37.3621 38.5148 37.7314 38.7426 37.9592L41.4927 40.7092L38.7426 43.4593C38.5148 43.6871 38.5148 44.0564 38.7426 44.2843C38.9703 44.512 39.3397 44.512 39.5674 44.2843ZM25.2574 43.4594L22.5073 40.7094L25.2574 37.9593C25.4852 37.7316 25.4852 37.3623 25.2574 37.1344C25.0297 36.9067 24.6603 36.9067 24.4325 37.1344L21.27 40.2969C21.0422 40.5247 21.0422 40.894 21.27 41.1218L24.4325 44.2843C24.6603 44.5121 25.0296 44.5121 25.2574 44.2843C25.4853 44.0565 25.4853 43.6872 25.2574 43.4594Z" fill="white"/>
</svg>
