<svg width="64" height="64" viewBox="0 0 64 64" fill="none" xmlns="http://www.w3.org/2000/svg">
<rect width="64" height="64" rx="32" fill="#8D5E2F"/>
<path d="M48 14.6667V13.3333C48 12.6 47.4 12 46.6667 12H17.3333C16.6 12 16 12.6 16 13.3333V14.6667H48Z" fill="white"/>
<path d="M48 16H16L12 22.6667C12 24.8667 13.8 26.6667 16 26.6667C18.2 26.6667 20 24.8667 20 22.6667C20 24.8667 21.8 26.6667 24 26.6667C26.2 26.6667 28 24.8667 28 22.6667C28 24.8667 29.8 26.6667 32 26.6667C34.2 26.6667 36 24.8667 36 22.6667C36 24.8667 37.8 26.6667 40 26.6667C42.2 26.6667 44 24.8667 44 22.6667C44 24.8667 45.8 26.6667 48 26.6667C50.2 26.6667 52 24.8667 52 22.6667L48 16Z" fill="white"/>
<path d="M43.8671 36.0667L47.8671 37.0667C48.2005 37.1333 48.4671 37 48.6005 36.7333L48.6671 36.6667C48.8671 36.2667 48.6671 35.8 48.2005 35.7333L44.2005 34.7333C43.8671 34.6667 43.6005 34.8 43.4671 35.0667L43.4005 35.2C43.2005 35.5333 43.4005 36 43.8671 36.0667Z" fill="white"/>
<path d="M36 40.6667V46C36 44.0667 36.9333 42.2 38.1333 40.6667H36Z" fill="white"/>
<path d="M42 36.7334C42.1333 36.6667 42.2 36.5334 42.3333 36.4667C42.2667 36.4 42.2667 36.3334 42.2 36.2667C41.9333 35.7334 41.9333 35.0667 42.2 34.5334L42.2667 34.4C42.4667 34 42.8 33.6667 43.2 33.4667C43.2 32.7334 43.2667 32 43.4 31.2667H36V39.2667H39.2667C40.2 38.2667 41.2 37.4 42 36.7334Z" fill="white"/>
<path d="M44.5997 28.1333C44.8664 27.8 45.1997 27.5333 45.6664 27.4C45.0664 27.0667 44.4664 26.6667 44.0664 26.1333C43.0664 27.2667 41.6664 27.9333 40.0664 27.9333C38.4664 27.9333 37.0664 27.2 36.0664 26.1333C35.0664 27.2667 33.6664 27.9333 32.0664 27.9333C30.4664 27.9333 29.0664 27.2 28.0664 26.1333C27.0664 27.2667 25.6664 27.9333 24.0664 27.9333C22.4664 27.9333 21.0664 27.2 20.0664 26.1333C19.0664 27.2667 17.6664 27.9333 16.0664 27.9333V49.9333H34.7331V30H43.7331C43.9331 29.2667 44.2664 28.6 44.5997 28.1333ZM31.9997 39.3333H18.6664V30H31.9997V39.3333Z" fill="white"/>
<path d="M44.5331 34L48.5331 35.3333C48.5331 35.3333 49.3331 33.5333 50.4665 32.4666C50.8665 32.0666 50.5998 31.3333 49.9998 31.3333H49.8665C49.4665 31.3333 49.1998 31.0666 49.1998 30.6666V30.6C49.1998 30.0666 48.5998 29.7333 48.1331 30.0666L47.9998 30.1333C47.5998 30.4 47.0665 30.2 46.9998 29.7333L46.8665 29.1333C46.7331 28.6 45.9998 28.4666 45.6665 28.8666C44.9998 29.8 44.3331 31.9333 44.5331 34Z" fill="white"/>
<path d="M45.333 48C45.733 48 45.9997 47.7333 45.9997 47.3333V46.6667C45.9997 46.2667 45.733 46 45.333 46V48Z" fill="white"/>
<path d="M43.333 43.3333V44C43.333 44.4 43.5997 44.6667 43.9997 44.6667V42.6667C43.5997 42.6667 43.333 42.9333 43.333 43.3333Z" fill="white"/>
<path d="M47.333 38.6667C46.933 38.0667 47.333 37.3333 47.333 37.3333L43.9997 36.6667C43.333 37.6 37.333 41.6 37.333 46C37.333 48.5333 38.1997 50.1333 38.933 51C39.4663 51.6 40.1997 52 40.9997 52H48.5997C49.5997 52 50.533 51.4667 50.933 50.6C51.4663 49.6 51.9997 48.0667 51.9997 46C51.9997 42.0667 47.733 39.2667 47.333 38.6667ZM47.333 44H45.9997V43.3333C45.9997 42.9333 45.733 42.6667 45.333 42.6667V44.6667C46.4663 44.6667 47.333 45.5333 47.333 46.6667V47.3333C47.333 48.4667 46.4663 49.3333 45.333 49.3333V50.6667H43.9997V49.3333C42.8663 49.3333 41.9997 48.4667 41.9997 47.3333V46.6667H43.333V47.3333C43.333 47.7333 43.5997 48 43.9997 48V46C42.8663 46 41.9997 45.1333 41.9997 44V43.3333C41.9997 42.2 42.8663 41.3333 43.9997 41.3333V40H45.333V41.3333C46.4663 41.3333 47.333 42.2 47.333 43.3333V44Z" fill="white"/>
</svg>
