<svg width="64" height="64" viewBox="0 0 64 64" fill="none" xmlns="http://www.w3.org/2000/svg">
<rect width="64" height="64" rx="32" fill="#8D5E2F"/>
<path d="M40.6958 12H23.3045C21.3835 12 19.8262 13.5573 19.8262 15.4783H44.1741C44.1741 13.5572 42.6168 12 40.6958 12Z" fill="white"/>
<path d="M23.3044 52H40.6957C42.6167 52 44.174 50.4427 44.174 48.5217H19.8262C19.8262 50.4428 21.3834 52 23.3044 52ZM31.1305 49.3913H32.8696C33.3498 49.3913 33.7392 49.7807 33.7392 50.2609C33.7392 50.7411 33.3498 51.1305 32.8696 51.1305H31.1305C30.6502 51.1305 30.2609 50.7411 30.2609 50.2609C30.261 49.7807 30.6502 49.3913 31.1305 49.3913Z" fill="white"/>
<path d="M35.4781 38.2609C35.4301 38.7411 35.0019 39.0915 34.5216 39.0435C34.0414 38.9955 33.691 38.5672 33.739 38.087H30.2607C30.2607 39.0696 28.7911 39.4261 28.5216 38.087H26.8955L27.4521 42.5391C27.5051 42.9782 27.8793 43.3076 28.3217 43.3044H35.6782C36.1204 43.3076 36.4947 42.9783 36.5478 42.5391L37.1043 38.087C35.252 38.087 35.4781 38.0174 35.4781 38.2609Z" fill="white"/>
<path d="M42.4348 29.7913C40.4543 31.5628 37.4588 31.5628 35.4783 29.7913C33.4978 31.5628 30.5023 31.5628 28.5218 29.7913C26.5413 31.5628 23.5458 31.5628 21.5653 29.7913C21.0638 30.2534 20.4715 30.6058 19.8262 30.8261V46.7826H44.1741V30.8261C43.5322 30.598 42.9414 30.2465 42.4348 29.7913ZM38.9565 38.087C38.8087 38.087 38.913 37.6001 38.2695 42.7566C38.1062 44.0705 36.9847 45.0536 35.6608 45.0435H28.3217C26.9978 45.0536 25.8763 44.0704 25.713 42.7566L25.1478 38.087C24.6676 38.1158 24.2549 37.7498 24.2261 37.2696C24.1973 36.7893 24.5632 36.3767 25.0435 36.3478H28.1566L27.6522 33.913C27.5562 33.4328 27.8676 32.9656 28.3478 32.8695C28.8281 32.7735 29.2953 33.0849 29.3913 33.5651L29.9478 36.3477H34.087L34.6087 33.5652C34.7047 33.085 35.1719 32.7735 35.6522 32.8696C36.1324 32.9656 36.4439 33.4328 36.3478 33.9131L35.8434 36.3479H38.9565C39.4367 36.3479 39.8261 36.7372 39.8261 37.2175C39.8261 37.6977 39.4367 38.087 38.9565 38.087Z" fill="white"/>
<path d="M20.7562 25.5913L24.1041 17.2174H19.8258L14.6084 25.9131C21.6866 25.913 20.5649 26.0434 20.7562 25.5913Z" fill="white"/>
<path d="M22.5039 25.913C28.2343 25.913 27.6343 25.9913 27.6691 25.7391L29.3909 17.2174H25.8243L22.5039 25.913Z" fill="white"/>
<path d="M33.1895 17.2161L31.1228 17.2174L29.3906 25.913H34.608L33.1895 17.2161Z" fill="white"/>
<path d="M36.3474 25.913H41.4953L38.1423 17.2161H34.8877L36.3474 25.913Z" fill="white"/>
<path d="M43.3042 25.913H49.3912L44.1738 17.2173H39.8955C43.5737 26.4174 43.3042 25.6696 43.3042 25.913Z" fill="white"/>
<path d="M35.0086 27.6522H28.9912C29.9551 29.3139 32.0836 29.8795 33.7452 28.9156C34.2691 28.6116 34.7046 28.1761 35.0086 27.6522Z" fill="white"/>
<path d="M28.0516 27.6522H22.0342C22.9981 29.3139 25.1265 29.8795 26.7882 28.9156C27.3121 28.6116 27.7476 28.1761 28.0516 27.6522Z" fill="white"/>
<path d="M21.0955 27.6522H15.0781C16.042 29.3139 18.1705 29.8795 19.8322 28.9156C20.3561 28.6116 20.7916 28.1761 21.0955 27.6522Z" fill="white"/>
<path d="M41.9646 27.6522H35.9473C36.9112 29.3139 39.0396 29.8795 40.7013 28.9156C41.2252 28.6116 41.6607 28.1761 41.9646 27.6522Z" fill="white"/>
<path d="M48.9217 27.6522H42.9043C43.8682 29.3139 45.9967 29.8795 47.6583 28.9156C48.1823 28.6116 48.6178 28.1761 48.9217 27.6522Z" fill="white"/>
</svg>
