<svg width="110" height="97" viewBox="0 0 110 97" fill="none" xmlns="http://www.w3.org/2000/svg">
<rect y="0.5" width="110" height="96" rx="10" fill="white"/>
<path d="M75.0005 31.0355C74.679 30.6425 74.3634 30.2446 74.0538 29.8422L73.9504 29.7005V29.6838C73.5338 29.1171 73.2337 29.2005 72.9004 29.2838C72.5671 29.3671 64.9501 30.7339 64.4834 30.7839C64.0167 30.8672 64.1667 31.1172 64.3668 31.3839L71.0337 40.5542L75.0005 39.6058V31.0355ZM35.0324 49.2095L42.2493 47.4761C42.8326 47.3428 42.6826 47.2761 42.3993 46.7594L35.0324 34.0356V49.2095ZM40.3326 64.5001H52.3163C50.7496 61.9483 46.4828 54.2447 44.266 50.2262H44.2494V50.2096L34.999 52.628V59.1816C35.0034 60.5934 35.5673 61.9459 36.567 62.9427C37.5667 63.9396 38.9207 64.4996 40.3326 64.5001ZM75.0005 45.7911V42.1393L72.7504 42.7576L72.9171 42.991L75.0005 45.7911Z" fill="#F34E39"/>
<path d="M68.5998 44.4763L61.0495 31.625C60.4162 30.5645 61.0495 30.0843 62.0829 29.8843C63.0829 29.6642 71.8166 27.9034 72.5833 27.7834C73.2 27.6633 73.7166 27.4232 74.5833 28.3836C74.1785 27.2308 73.499 26.2472 72.6302 25.5563C71.7614 24.8654 70.742 24.4979 69.6998 24.5H40.3238C39.0889 24.5023 37.8933 25.0212 36.9427 25.9674C35.9921 26.9135 35.3459 28.2278 35.1152 29.6842L45.7656 51.0411L68.5998 44.4763ZM75 54.7646L70.7332 47.7597C70.4665 47.2595 70.3165 47.1594 69.6665 47.4196L47.399 54.3845C47.399 54.3845 54.2326 68.5964 54.7493 69.4967C55.2826 70.4171 55.5993 70.3371 56.016 70.137C56.316 69.9769 69.0165 64.8128 75 62.3898V54.7646ZM74.9834 66.6356L61.3329 72.5H69.6998C72.4999 72.5 74.7833 69.8969 74.9834 66.6356Z" fill="#F34E39"/>
</svg>
