<svg width="110" height="97" viewBox="0 0 110 97" fill="none" xmlns="http://www.w3.org/2000/svg">
<rect y="0.5" width="110" height="96" rx="10" fill="white"/>
<path d="M45.0716 54.4527H44.3648V50.4045C44.3648 50.0848 44.3858 49.6955 44.4235 49.2362H44.4076C44.3413 49.5046 44.2805 49.6993 44.2272 49.8197L42.1708 54.4527H41.8264L39.7662 49.8533C39.7083 49.7249 39.6475 49.5181 39.5858 49.2362H39.5707C39.5925 49.4778 39.6047 49.8692 39.6047 50.4124V54.4527H38.9226V48.424H39.856L41.7056 52.6278C41.8448 52.9441 41.935 53.1849 41.9787 53.3494H42.0076C42.1284 53.0201 42.2245 52.7726 42.2962 52.6102L44.1861 48.424H45.0712V54.4527H45.0716ZM47.248 54.4527H46.5605V50.1473H47.248V54.4527ZM47.3667 48.604C47.3667 48.7311 47.3223 48.8368 47.2338 48.9241C47.1469 49.0113 47.0391 49.0549 46.9133 49.0549C46.7903 49.0549 46.6834 49.0126 46.5957 48.9287C46.508 48.8443 46.4644 48.7365 46.4644 48.604C46.4644 48.4798 46.508 48.3737 46.5957 48.2877C46.6834 48.2017 46.7903 48.1597 46.9133 48.1597C47.0391 48.1597 47.1469 48.2013 47.2338 48.2877C47.3223 48.3737 47.3667 48.4798 47.3667 48.604ZM51.5441 54.2534C51.2144 54.456 50.8201 54.5563 50.3645 54.5563C49.747 54.5563 49.2507 54.3516 48.8707 53.9421C48.5019 53.5449 48.3165 53.0322 48.3165 52.4038C48.3165 51.6986 48.5179 51.1277 48.9248 50.6935C49.3292 50.2589 49.8733 50.042 50.5575 50.042C50.9317 50.042 51.2635 50.115 51.5538 50.2606V50.9683C51.2325 50.7426 50.8927 50.6306 50.5281 50.6306C50.0897 50.6306 49.7327 50.7837 49.4563 51.0891C49.1681 51.4016 49.0225 51.8199 49.0225 52.3413C49.0225 52.8422 49.1555 53.2391 49.4202 53.5314C49.6858 53.8226 50.0394 53.9686 50.4849 53.9686C50.8612 53.9686 51.214 53.8448 51.5437 53.5986V54.2534H51.5441ZM54.833 50.8458C54.7118 50.7522 54.5369 50.7069 54.3066 50.7069C54.0263 50.7069 53.791 50.832 53.6005 51.0849C53.3841 51.3672 53.2771 51.7578 53.2771 52.2574V54.4523H52.5874V50.1473H53.2771V51.035H53.2935C53.3946 50.7208 53.551 50.4791 53.76 50.308C53.9554 50.1515 54.1761 50.0727 54.4194 50.0727C54.6032 50.0727 54.7391 50.0924 54.8322 50.1314L54.833 50.8458ZM58.6732 52.3078C58.6732 51.757 58.549 51.3358 58.2998 51.0467C58.0586 50.769 57.7209 50.6306 57.2863 50.6306C56.858 50.6306 56.514 50.7707 56.2573 51.0514C55.9858 51.3513 55.8499 51.775 55.8499 52.3245C55.8499 52.8397 55.9791 53.2441 56.2401 53.5323C56.4993 53.8226 56.8483 53.9682 57.2863 53.9682C57.7394 53.9682 58.0863 53.8205 58.3241 53.5273C58.557 53.2403 58.6732 52.8342 58.6732 52.3078ZM59.38 52.2838C59.38 52.9697 59.1862 53.521 58.8003 53.9342C58.4127 54.3491 57.8912 54.5563 57.2355 54.5563C56.5895 54.5563 56.0748 54.3491 55.6981 53.9342C55.3285 53.5344 55.1431 53.0067 55.1431 52.3501C55.1431 51.6009 55.3528 51.0237 55.7736 50.6138C56.1633 50.2337 56.6839 50.042 57.3366 50.042C57.9785 50.042 58.4802 50.2421 58.8414 50.6386C59.1992 51.0371 59.38 51.5858 59.38 52.2838ZM62.7973 53.3007C62.7973 53.6531 62.666 53.9451 62.4021 54.1779C62.1139 54.43 61.7183 54.5559 61.2208 54.5559C60.8135 54.5559 60.4565 54.4707 60.1532 54.2966V53.5558C60.4905 53.8301 60.863 53.9682 61.272 53.9682C61.8178 53.9682 62.0909 53.7672 62.0909 53.3666C62.0909 53.1984 62.0309 53.0587 61.91 52.9509C61.7888 52.8409 61.5531 52.7092 61.2032 52.5553C60.8428 52.3975 60.5857 52.2356 60.4342 52.0674C60.2522 51.8677 60.1607 51.6089 60.1607 51.2896C60.1607 50.9322 60.3038 50.6348 60.5861 50.3982C60.8693 50.1603 61.233 50.0416 61.6793 50.0416C62.0212 50.0416 62.3279 50.1083 62.5997 50.2434V50.9372C62.3157 50.7325 61.991 50.6302 61.6227 50.6302C61.3945 50.6302 61.2112 50.6872 61.0744 50.7976C60.9364 50.9108 60.8672 51.0551 60.8672 51.2313C60.8672 51.4222 60.9251 51.5703 61.04 51.6764C61.1424 51.7742 61.3592 51.8941 61.6865 52.0338C62.0539 52.1878 62.3195 52.3476 62.4814 52.5108C62.6912 52.718 62.7973 52.9811 62.7973 53.3007ZM67.0091 52.3078C67.0091 51.757 66.8845 51.3358 66.6349 51.0467C66.3937 50.769 66.0556 50.6306 65.6218 50.6306C65.1935 50.6306 64.8495 50.7707 64.5915 51.0514C64.3205 51.3513 64.185 51.775 64.185 52.3245C64.185 52.8397 64.3146 53.2441 64.5726 53.5323C64.8352 53.8226 65.1847 53.9682 65.6218 53.9682C66.0757 53.9682 66.4214 53.8205 66.6597 53.5273C66.8925 53.2403 67.0091 52.8342 67.0091 52.3078ZM67.7172 52.2838C67.7172 52.9697 67.5217 53.521 67.135 53.9342C66.749 54.3491 66.2276 54.5563 65.5715 54.5563C64.9246 54.5563 64.4103 54.3491 64.0332 53.9342C63.6636 53.5344 63.4781 53.0067 63.4781 52.3501C63.4781 51.6009 63.6896 51.0237 64.1082 50.6138C64.4975 50.2337 65.019 50.042 65.6721 50.042C66.3144 50.042 66.8153 50.2421 67.1756 50.6386C67.5343 51.0371 67.7172 51.5858 67.7172 52.2838ZM70.7536 48.6845C70.6181 48.6094 70.4675 48.5713 70.2959 48.5713C69.8135 48.5713 69.5739 48.875 69.5739 49.4837V50.1473H70.5828V50.7313H69.5739V54.4527H68.8839V50.7313H68.1518V50.1473H68.8839V49.4493C68.8839 48.9757 69.029 48.6036 69.3243 48.3359C69.5773 48.1031 69.8865 47.9873 70.2544 47.9873C70.4675 47.9873 70.6328 48.0129 70.7532 48.062V48.6845H70.7536ZM73.4736 54.4095C73.3109 54.5026 73.0944 54.5492 72.8263 54.5492C72.075 54.5492 71.6991 54.1255 71.6991 53.2785V50.7321H70.9604V50.1473H71.6991V49.0969L72.3896 48.8733V50.1473H73.4732V50.7321H72.3896V53.1614C72.3896 53.4501 72.4366 53.6565 72.5356 53.776C72.6351 53.8998 72.7978 53.9602 73.0277 53.9602C73.1993 53.9602 73.3478 53.9145 73.4736 53.8213V54.4095ZM36.221 71.2554C36.221 71.5931 36.101 71.8847 35.8573 72.1309C35.6152 72.3763 35.3211 72.5001 34.9755 72.5001C34.6378 72.5001 34.3508 72.3763 34.1155 72.1309C33.8797 71.8847 33.7627 71.5927 33.7627 71.2554C33.7627 70.9085 33.8797 70.6157 34.1155 70.3732C34.3508 70.1299 34.6378 70.0095 34.9755 70.0095C35.3207 70.0095 35.6148 70.132 35.8573 70.3778C36.101 70.6245 36.221 70.9173 36.221 71.2554ZM51.6507 72.2471H49.403L41.2445 59.6478C41.0541 59.3445 40.8892 59.0152 40.7499 58.6557H40.6828C40.7411 58.993 40.7705 59.7174 40.7705 60.8266V72.2471H38.918V56.4403H41.3225L49.2365 68.8408C49.5515 69.3328 49.7671 69.6852 49.8762 69.8975H49.9198C49.8464 69.4432 49.8082 68.6675 49.8082 67.5735V56.4403H51.6499V72.2471H51.6507ZM63.5285 72.2471H55.1506V56.4403H63.1648V58.1154H57.0023V63.3734H62.7126V65.0493H57.0019V70.5716H63.5285V72.2471ZM76.2356 58.1154H71.6824V72.2476H69.8303V58.1154H65.2682V56.4394H76.2356V58.1154Z" fill="#1384C8"/>
<path fill-rule="evenodd" clip-rule="evenodd" d="M62.595 41.0874C62.796 40.5705 63.0238 40.0617 63.1937 39.5348C64.1535 36.5576 65.1041 33.5779 66.0484 30.5956C66.4113 29.4499 66.8089 28.3219 67.5229 27.3373C68.6522 25.7814 70.2254 24.9663 72.0871 24.6815C72.8175 24.5699 73.5629 24.5183 74.3021 24.5111C76.5116 24.4902 78.722 24.5049 80.9319 24.5069C81.0494 24.5069 81.1668 24.5191 81.3334 24.5288C81.2793 24.6563 81.2499 24.749 81.2029 24.8325C80.3828 26.2982 79.5786 27.7728 78.7341 29.2238C77.2638 31.7501 75.7909 34.2755 74.2744 36.774C73.3016 38.3761 72.2465 39.9287 71.0497 41.3777C70.1666 42.4466 69.237 43.4685 68.0519 44.2177C67.2444 44.7282 66.3819 45.0269 65.4028 45.0219C61.9301 45.003 58.4575 45.0168 54.9848 45.0118C53.9524 45.0101 53.0686 44.6171 52.3185 43.9198C51.2433 42.921 50.6015 41.6495 50.0762 40.3088C49.1181 37.861 48.5816 35.2953 47.9657 32.7519C47.6771 31.5613 47.3491 30.38 47.0365 29.1953C47.0164 29.1185 46.977 29.0468 46.9317 28.9365L46.6896 29.1638C45.3354 30.5092 44.1428 31.9917 43.0756 33.5678C42.7849 33.9974 42.6871 34.5637 42.5248 35.0742C41.9274 36.9494 41.3829 38.8426 40.736 40.7002C40.1164 42.4797 39.0056 43.8951 37.2693 44.7316C36.2541 45.2203 35.1701 45.4846 34.0437 45.5098C32.3741 45.5467 30.7036 45.5509 29.0336 45.566C28.6342 45.5698 28.6158 45.537 28.7198 45.1507C29.4359 42.4919 30.3433 39.901 31.4801 37.3932C32.6522 34.8062 34.0328 32.3391 35.7721 30.0859C36.9563 28.5518 38.2643 27.1364 39.9012 26.0662C40.7314 25.5238 41.614 25.0951 42.6183 24.9822C42.7836 24.9634 42.951 24.9516 43.1171 24.9516C46.6737 24.9499 50.2302 24.986 53.7863 24.9353C55.6938 24.908 57.0748 25.7134 58.1089 27.2488C58.752 28.2036 59.2122 29.2461 59.5994 30.3229C60.3801 32.4951 60.8654 34.7474 61.4137 36.9838C61.7275 38.2637 62.077 39.5348 62.4117 40.8097C62.4369 40.9053 62.4776 40.9968 62.5116 41.0899L62.595 41.0874Z" fill="#1384C8"/>
</svg>
