<svg width="110" height="97" viewBox="0 0 110 97" fill="none" xmlns="http://www.w3.org/2000/svg">
<rect y="0.5" width="110" height="96" rx="10" fill="white"/>
<path d="M72.0036 33.9316L68.9054 68.639L54.979 72.4998L41.091 68.6443L37.9961 33.9316H72.0036Z" fill="#E44D26"/>
<path d="M54.999 69.5508L66.2522 66.431L68.8997 36.772H54.999V69.5508Z" fill="#F16529"/>
<path d="M48.977 45.2867H54.9997V41.0293H44.3242L44.4261 42.1715L45.4725 53.9036H54.9997V49.6463H49.3661L48.977 45.2867ZM49.9365 56.0324H45.6627L46.2591 62.7171L54.9801 65.1379L54.9997 65.1326V60.7031L54.981 60.7081L50.2396 59.4278L49.9365 56.0324Z" fill="#EBEBEB"/>
<path d="M41.1602 24.5H43.3237V26.6375H45.3029V24.5H47.4666V30.973H45.303V28.8055H43.3238V30.973H41.1603V24.5H41.1602ZM50.3116 26.6466H48.4072V24.5H54.3811V26.6466H52.4755V30.973H50.312V26.6466H50.3118H50.3116ZM55.3292 24.5H57.5851L58.9728 26.7745L60.3592 24.5H62.616V30.973H60.4613V27.7646L58.9728 30.0662H58.9355L57.4461 27.7646V30.973H55.3292V24.5ZM63.6927 24.5H65.857V28.8335H68.8995V30.973H63.6926V24.5H63.6927Z" fill="black"/>
<path d="M54.9845 53.9036H60.227L59.7327 59.4251L54.9844 60.7067V65.1359L63.7123 62.7171L63.7763 61.9978L64.7768 50.7895L64.8807 49.6463H54.9845V53.9036ZM54.9845 45.2763V45.2867H65.2681L65.3534 44.3298L65.5475 42.1715L65.6492 41.0293H54.9845V45.2764V45.2763Z" fill="white"/>
</svg>
