<svg width="110" height="97" viewBox="0 0 110 97" fill="none" xmlns="http://www.w3.org/2000/svg">
<rect y="0.5" width="110" height="96" rx="10" fill="white"/>
<path d="M45.6948 38.8114C43.5845 40.7772 41.6517 42.9255 39.9191 45.2311C38.0678 47.4932 36.7473 50.1416 36.0547 52.9814C35.3622 55.8212 35.3152 58.7801 35.9172 61.6404C36.7373 64.3788 38.2932 66.8394 40.4154 68.7543C42.5377 70.6692 45.1448 71.9648 47.9527 72.5H47.9847L47.9647 72.482C46.4522 71.8159 45.1476 70.7537 44.1888 69.4076C43.2299 68.0615 42.6523 66.4815 42.517 64.8343C42.6058 63.1325 43.0962 61.4758 43.9482 59.9999C44.8002 58.524 45.9895 57.2707 47.4187 56.3427C46.9428 57.5026 47.0588 58.8226 47.7187 59.8825C48.0858 60.3961 48.5944 60.7917 49.1825 61.0211C49.7706 61.2505 50.4127 61.3038 51.0306 61.1745C51.6188 61.009 52.1515 60.6878 52.5724 60.2449C52.9934 59.8019 53.287 59.2536 53.4224 58.6577C53.5577 58.0619 53.5298 57.4405 53.3415 56.8592C53.1532 56.2778 52.8115 55.7581 52.3525 55.3547C51.3492 54.5384 50.5734 53.4771 50.1001 52.2733C49.6268 51.0696 49.472 49.7641 49.6507 48.483C50.0024 47.0978 50.7677 45.8527 51.8446 44.9131C51.0346 47.0731 53.3185 49.205 54.8544 50.2529C57.5763 51.8856 60.1982 53.6794 62.7061 55.6247C64.0539 56.687 65.1226 58.0616 65.8199 59.6297C66.5171 61.1977 66.8219 62.912 66.7079 64.6243C66.4088 66.4295 65.6188 68.1177 64.4245 69.5039C63.2301 70.8902 61.6773 71.9212 59.9362 72.484C67.0399 70.9041 74.3616 65.2643 74.5016 57.2646C74.4313 54.129 73.4729 51.0777 71.7375 48.465C70.0021 45.8524 67.5611 43.7858 64.698 42.5053H64.438C64.568 42.8192 64.63 43.1572 64.618 43.4972C64.614 43.5372 64.622 43.5772 64.618 43.6172C64.4667 44.2332 64.1459 44.7947 63.6921 45.2379C63.2383 45.6812 62.6696 45.9887 62.0502 46.1256C61.4307 46.2625 60.7854 46.2234 60.187 46.0127C59.5887 45.8019 59.0612 45.428 58.6643 44.9331C56.3224 41.9333 58.6643 38.5194 59.0563 35.2196C59.1749 33.1472 58.7688 31.0784 57.8757 29.2047C56.9825 27.3309 55.6311 25.7128 53.9465 24.5C55.6584 27.3539 53.3785 31.0997 51.7186 33.2316C50.0546 35.3635 47.6507 36.9515 45.6948 38.8114Z" fill="#E9460F"/>
</svg>
