<svg width="57" height="56" viewBox="0 0 57 56" fill="none" xmlns="http://www.w3.org/2000/svg">
<path d="M51.3443 15.8156H37.286C34.434 15.8156 32.1309 18.124 32.1309 20.9709V50.8447C32.1309 53.6966 34.439 56 37.286 56H51.3443C54.1963 55.9999 56.4996 53.6916 56.4996 50.8446V20.9708C56.4996 18.1188 54.191 15.8156 51.3443 15.8156ZM46.0725 22.8446H42.5579C41.6518 22.8446 40.9173 22.1101 40.9173 21.204C40.9173 20.2979 41.6518 19.5634 42.5579 19.5634H46.0725C46.9786 19.5634 47.7132 20.2979 47.7132 21.204C47.7132 22.1101 46.9786 22.8446 46.0725 22.8446Z" fill="#8D5E2F"/>
<path d="M18.0726 45.6895H14.4414C13.5353 45.6895 12.8008 46.4241 12.8008 47.3301C12.8008 48.2362 13.5353 48.9707 14.4414 48.9707H28.8497V41.7083H18.0725V45.6895H18.0726Z" fill="#242525"/>
<path d="M51.3446 12.5344C51.9059 12.5344 52.4543 12.5907 52.9852 12.6958V5.15516C52.9852 2.31262 50.6726 0 47.8301 0H5.65516C2.81262 0 0.5 2.31273 0.5 5.15527V33.2718C0.5 36.1144 2.81262 38.427 5.65516 38.427H28.8499V20.9709C28.8499 16.3189 32.6345 12.5342 37.2864 12.5342L51.3446 12.5344Z" fill="#242525"/>
</svg>
