<svg width="61" height="56" viewBox="0 0 61 56" fill="none" xmlns="http://www.w3.org/2000/svg">
<path fill-rule="evenodd" clip-rule="evenodd" d="M55.3886 6.22227C54.8159 6.22227 54.3516 5.75797 54.3516 5.18523C54.3516 4.61249 54.8159 4.14819 55.3886 4.14819C55.9613 4.14819 56.4256 4.61249 56.4256 5.18523C56.4256 5.75797 55.9613 6.22227 55.3886 6.22227Z" fill="#242525"/>
<path fill-rule="evenodd" clip-rule="evenodd" d="M51.2411 6.22227C50.6684 6.22227 50.2041 5.75797 50.2041 5.18523C50.2041 4.61249 50.6684 4.14819 51.2411 4.14819C51.8139 4.14819 52.2782 4.61249 52.2782 5.18523C52.2782 5.75797 51.8139 6.22227 51.2411 6.22227Z" fill="#242525"/>
<path fill-rule="evenodd" clip-rule="evenodd" d="M47.0927 6.22227C46.52 6.22227 46.0557 5.75797 46.0557 5.18523C46.0557 4.61249 46.52 4.14819 47.0927 4.14819C47.6654 4.14819 48.1297 4.61249 48.1297 5.18523C48.1297 5.75797 47.6654 6.22227 47.0927 6.22227Z" fill="#242525"/>
<rect x="10" y="13" width="41" height="25" fill="#8D5E2F"/>
<path fill-rule="evenodd" clip-rule="evenodd" d="M0.425781 50.8148V5.18518C0.425781 2.32193 2.74771 0 5.61097 0H55.3887C58.252 0 60.5739 2.32193 60.5739 5.18518V50.8148C60.5739 52.1899 60.0274 53.509 59.0557 54.4818C58.083 55.4535 56.7639 56 55.3887 56H5.61097C4.23586 56 2.91674 55.4535 1.944 54.4818C0.9723 53.509 0.425781 52.1899 0.425781 50.8148ZM43.9813 44.5926C43.9813 43.7671 43.6536 42.9759 43.0698 42.392C42.487 41.8092 41.6957 41.4815 40.8702 41.4815H20.1295C19.304 41.4815 18.5127 41.8092 17.9299 42.392C17.3461 42.9759 17.0184 43.7671 17.0184 44.5926V45.6296C17.0184 46.4551 17.3461 47.2464 17.9299 47.8292C18.5127 48.413 19.304 48.7407 20.1295 48.7407H40.8702C41.6957 48.7407 42.487 48.413 43.0698 47.8292C43.6536 47.2464 43.9813 46.4551 43.9813 45.6296V44.5926ZM17.0184 30.0741H10.7962V33.1997C10.7962 34.021 11.1228 34.8081 11.7025 35.3889C12.2833 35.9696 13.0714 36.2963 13.8927 36.2963H13.9218C14.7431 36.2963 15.5313 35.9696 16.112 35.3889C16.6917 34.8081 17.0184 34.021 17.0184 33.1997V30.0741ZM25.3147 30.0741H19.0924V33.1852C19.0924 34.9036 20.4852 36.2963 22.2036 36.2963C23.9219 36.2963 25.3147 34.9036 25.3147 33.1852V30.0741ZM35.685 30.0741V33.1852C35.685 34.9036 37.0778 36.2963 38.7962 36.2963C40.5145 36.2963 41.9073 34.9036 41.9073 33.1852V30.0741H35.685ZM27.3887 30.0741V33.1852C27.3887 34.9036 28.7815 36.2963 30.4999 36.2963C32.2182 36.2963 33.611 34.9036 33.611 33.1852V30.0741H27.3887ZM43.9813 30.0741V33.1852C43.9813 34.9036 45.3741 36.2963 47.0924 36.2963C48.8108 36.2963 50.2036 34.9036 50.2036 33.1852V30.0741H43.9813ZM39.3147 17.6296L43.636 28H49.3024L43.3124 19.0151C42.7359 18.1492 41.7642 17.6296 40.724 17.6296H39.3147ZM31.6956 17.6296H29.3042L27.5754 28H33.4243L31.6956 17.6296ZM37.0674 17.6296H33.7976L35.5264 28H41.3887L37.0674 17.6296ZM23.9323 17.6296L19.611 28H25.4733L27.2021 17.6296H23.9323ZM21.685 17.6296H20.2757C19.2356 17.6296 18.2639 18.1492 17.6873 19.0151L11.6973 28H17.3637L21.685 17.6296ZM58.4999 8.2963V5.18518C58.4999 3.46681 57.1071 2.07407 55.3887 2.07407H5.61097C3.8926 2.07407 2.49986 3.46681 2.49986 5.18518V8.2963H58.4999Z" fill="#242525"/>
</svg>
