<svg width="56" height="56" viewBox="0 0 56 56" fill="none" xmlns="http://www.w3.org/2000/svg">
<path d="M46.8942 34.2109C46.3317 33.9297 45.6676 33.9297 45.1051 34.2109C45.1051 34.2109 36.9811 38.2987 36.917 38.3406L45.9996 42.8818L55.0823 38.3406C55.0182 38.2987 46.8942 34.2109 46.8942 34.2109Z" fill="#8D5E2F"/>
<path d="M36 50C36 50.7578 36.4277 51.4502 37.1055 51.7891L45 56V44.6182L36 40.1182V50Z" fill="#8D5E2F"/>
<path d="M47 44.6182V56L54.8945 51.7891C55.5723 51.4502 56 50.7578 56 50V40.1182L47 44.6182Z" fill="#8D5E2F"/>
<path d="M22.8942 34.2109C22.3317 33.9297 21.6676 33.9297 21.1051 34.2109C21.1051 34.2109 12.9811 38.2987 12.917 38.3406L21.9996 42.8818L31.0823 38.3406C31.0182 38.2987 22.8942 34.2109 22.8942 34.2109Z" fill="#8D5E2F"/>
<path d="M12 50C12 50.7578 12.4277 51.4502 13.1055 51.7891L21 56V44.6182L12 40.1182V50Z" fill="#8D5E2F"/>
<path d="M23 56L30.8945 51.7891C31.5723 51.4502 32 50.7578 32 50V40.1182L23 44.6182V56Z" fill="#8D5E2F"/>
<path d="M34.8942 14.2109C34.3317 13.9297 33.6676 13.9297 33.1051 14.2109C33.1051 14.2109 24.9811 18.2987 24.917 18.3406L33.9996 22.8818L43.0823 18.3406C43.0182 18.2987 34.8942 14.2109 34.8942 14.2109Z" fill="#8D5E2F"/>
<path d="M24 30C24 30.7578 24.4277 31.4502 25.1055 31.7891L33 36V24.6182L24 20.1182V30Z" fill="#8D5E2F"/>
<path d="M44 30V20.1182L35 24.6182V36L42.8945 31.7891C43.5723 31.4502 44 30.7578 44 30Z" fill="#8D5E2F"/>
<path d="M10 50V37.8549C10 37.8549 11.9824 36.5625 20.2061 32.4248C20.7637 32.1455 21.3125 32 22 32V17.8549C22 17.8549 23.9824 16.5625 32.207 12.4248C32.7637 12.1455 33.3828 12 34 12C34.6172 12 35.2363 12.1455 35.7891 12.4219C36.6122 12.8359 37.3325 13.1984 38 13.5343V2C38 0.895508 37.1045 0 36 0H28.8341L26.9697 7.45508C26.8584 7.90039 26.459 8.21289 26 8.21289H12C11.541 8.21289 11.1416 7.90039 11.0303 7.45508L9.16589 0H2C0.895508 0 0 0.895508 0 2V54C0 55.1045 0.895508 56 2 56H16.75L12.1641 53.5537C10.8477 52.8955 10 51.5254 10 50ZM8 14C10.2061 14 12 15.7939 12 18C12 20.2061 10.2061 22 8 22C5.79395 22 4 20.2061 4 18C4 15.7939 5.79395 14 8 14ZM4 30C4 27.7939 5.79395 26 8 26C10.2061 26 12 27.7939 12 30C12 32.2061 10.2061 34 8 34C5.79395 34 4 32.2061 4 30Z" fill="#242525"/>
<path d="M25.2186 6.21289L26.7722 0H11.2275L12.7811 6.21289H25.2186Z" fill="#242525"/>
</svg>
