<svg width="57" height="56" viewBox="0 0 57 56" fill="none" xmlns="http://www.w3.org/2000/svg">
<path d="M42.9828 29.931C42.9828 28.334 41.6832 27.0344 40.0862 27.0344H15.5486L14.4662 25.9511C13.9188 25.4046 13.1917 25.1034 12.4174 25.1034H3.39655C1.79959 25.1034 0.5 26.403 0.5 27.9999V30.8965H42.9828V29.931ZM4.36207 28.9655H2.43103V27.0344H4.36207V28.9655ZM8.22414 28.9655H6.2931V27.0344H8.22414V28.9655ZM12.0862 28.9655H10.1552V27.0344H12.0862V28.9655Z" fill="#242525"/>
<path d="M50.7068 15.4483C50.7068 10.1244 46.3755 5.79309 41.0517 5.79309C35.7278 5.79309 31.3965 10.1244 31.3965 15.4483C31.3965 20.7721 35.7278 25.1034 41.0517 25.1034C46.3755 25.1034 50.7068 20.7721 50.7068 15.4483ZM41.0517 21.2414C37.8568 21.2414 35.2586 18.6432 35.2586 15.4483C35.2586 12.2534 37.8568 9.65516 41.0517 9.65516C44.2466 9.65516 46.8448 12.2534 46.8448 15.4483C46.8448 18.6432 44.2466 21.2414 41.0517 21.2414Z" fill="#8D5E2F"/>
<path d="M54.3054 12.7999L54.1645 12.2254C53.8401 10.8978 53.3139 9.6291 52.6032 8.456L52.2962 7.95007L53.4828 6.03255L50.4675 3.01724L48.55 4.20386L48.045 3.89683C46.8729 3.18524 45.6052 2.66 44.2757 2.33365L43.7012 2.19269L43.1837 0H38.9199L38.4034 2.19366L37.8289 2.33462C36.4994 2.66 35.2317 3.18621 34.0595 3.89779L33.5546 4.20483L31.637 3.01821L28.6217 6.03352L29.8083 7.95103L29.5013 8.45697C28.7907 9.63007 28.2645 10.8978 27.9401 12.2263L27.7991 12.8008L25.6035 13.3164V17.5801L27.7981 18.0967L27.9391 18.6712C28.2635 19.9988 28.7897 21.2674 29.5003 22.4406L29.8074 22.9465L28.6208 24.864L28.8592 25.1034H34.661C31.5337 23.0266 29.4656 19.4754 29.4656 15.4483C29.4656 9.05945 34.663 3.86207 41.0518 3.86207C47.4406 3.86207 52.638 9.05945 52.638 15.4483C52.638 20.9363 48.7991 25.5341 43.6683 26.7255C44.1125 27.2208 44.4475 27.8059 44.658 28.4528C45.8388 28.1265 46.982 27.6437 48.0441 26.9988L48.549 26.6917L50.4665 27.8783L53.4819 24.863L52.2952 22.9455L52.6023 22.4396C53.3129 21.2665 53.8391 19.9988 54.1635 18.6702L54.3045 18.0957L56.5001 17.5801V13.3164L54.3054 12.7999Z" fill="#8D5E2F"/>
<path d="M48.7759 42.4828H26.569V40.5518H42.9828V32.8276H0.5V53.1035C0.5 54.7005 1.79959 56 3.39655 56H40.0862C41.6832 56 42.9828 54.7005 42.9828 53.1035V48.2759H32.3621V46.3449H48.7759V48.2759L53.925 44.4138L48.7759 40.5518V42.4828ZM39.1207 34.7587H41.0517V36.6897H39.1207V34.7587ZM35.2586 34.7587H37.1897V36.6897H35.2586V34.7587ZM31.3966 34.7587H33.3276V36.6897H31.3966V34.7587ZM8.22414 54.069H4.36207C3.2971 54.069 2.43103 53.2029 2.43103 52.138V42.4828H4.36207V52.138H8.22414V54.069ZM12.0862 54.069H10.1552V52.138H12.0862V54.069ZM26.569 48.2759H24.6379V46.3449H26.569V48.2759ZM30.431 48.2759H28.5V46.3449H30.431V48.2759Z" fill="#242525"/>
</svg>
