<svg width="60" height="56" viewBox="0 0 60 56" fill="none" xmlns="http://www.w3.org/2000/svg">
<path d="M27 40H4C2.9 40 2 39.1 2 38V4C2 2.9 2.9 2 4 2H53C54.1 2 55 2.9 55 4V27C55 27.55 55.45 28 56 28C56.55 28 57 27.55 57 27V4C57 1.79 55.21 0 53 0H4C1.79 0 0 1.79 0 4V38C0 40.21 1.79 42 4 42H27C27.55 42 28 41.55 28 41C28 40.45 27.55 40 27 40Z" fill="#242525"/>
<path d="M46 26V34.05C49.15 34.49 51.63 37.04 51.97 40.24H60C59.63 32.63 53.58 26.49 46 26Z" fill="#8D5E2F"/>
<path d="M50.4905 45.34L56.1605 51.02C57.3205 49.74 58.2305 48.29 58.8805 46.73C59.4605 45.31 59.8305 43.8 59.9605 42.24H51.8905C51.6805 43.37 51.2005 44.43 50.4805 45.33L50.4905 45.34Z" fill="#8D5E2F"/>
<path d="M45.01 47.99C41.15 47.99 38.01 44.85 38.01 40.98C38.01 37.46 40.62 34.53 44 34.05V26C36.19 26.52 30 33.04 30 40.98C30 48.92 36.73 56 45.01 56C48.61 56 52.01 54.74 54.74 52.41L49.05 46.71C47.88 47.54 46.48 47.99 45.02 47.99H45.01Z" fill="#8D5E2F"/>
<path d="M31 16C31 15.47 30.85 14.97 30.6 14.54L33.89 10.78C34.23 10.92 34.6 11 34.99 11C35.38 11 35.75 10.92 36.09 10.78L39.38 14.54C39.14 14.97 38.98 15.47 38.98 16C38.98 17.65 40.33 19 41.98 19C43.63 19 44.98 17.65 44.98 16C44.98 15.47 44.83 14.97 44.58 14.54L47.87 10.78C48.21 10.92 48.58 11 48.97 11C50.62 11 51.97 9.65 51.97 8C51.97 6.35 50.62 5 48.97 5C47.32 5 45.97 6.35 45.97 8C45.97 8.53 46.12 9.03 46.37 9.46L43.08 13.22C42.74 13.08 42.37 13 41.98 13C41.59 13 41.22 13.08 40.88 13.22L37.59 9.46C37.83 9.03 37.99 8.53 37.99 8C37.99 6.35 36.64 5 34.99 5C33.34 5 31.99 6.35 31.99 8C31.99 8.53 32.14 9.03 32.39 9.46L29.1 13.22C28.76 13.08 28.39 13 28 13C26.35 13 25 14.35 25 16C25 17.65 26.35 19 28 19C29.65 19 31 17.65 31 16Z" fill="#242525"/>
<path d="M10 24H6C5.44772 24 5 24.4477 5 25V36C5 36.5523 5.44772 37 6 37H10C10.5523 37 11 36.5523 11 36V25C11 24.4477 10.5523 24 10 24Z" fill="#242525"/>
<path d="M18 20H14C13.4477 20 13 20.4477 13 21V36C13 36.5523 13.4477 37 14 37H18C18.5523 37 19 36.5523 19 36V21C19 20.4477 18.5523 20 18 20Z" fill="#242525"/>
<path d="M26 27H22C21.4477 27 21 27.4477 21 28V36C21 36.5523 21.4477 37 22 37H26C26.5523 37 27 36.5523 27 36V28C27 27.4477 26.5523 27 26 27Z" fill="#242525"/>
<path d="M6 7H8C8.55 7 9 6.55 9 6C9 5.45 8.55 5 8 5H6C5.45 5 5 5.45 5 6C5 6.55 5.45 7 6 7Z" fill="#242525"/>
<path d="M12 7H20C20.55 7 21 6.55 21 6C21 5.45 20.55 5 20 5H12C11.45 5 11 5.45 11 6C11 6.55 11.45 7 12 7Z" fill="#242525"/>
<path d="M6 12H8C8.55 12 9 11.55 9 11C9 10.45 8.55 10 8 10H6C5.45 10 5 10.45 5 11C5 11.55 5.45 12 6 12Z" fill="#242525"/>
<path d="M12 12H20C20.55 12 21 11.55 21 11C21 10.45 20.55 10 20 10H12C11.45 10 11 10.45 11 11C11 11.55 11.45 12 12 12Z" fill="#242525"/>
<path d="M6 17H8C8.55 17 9 16.55 9 16C9 15.45 8.55 15 8 15H6C5.45 15 5 15.45 5 16C5 16.55 5.45 17 6 17Z" fill="#242525"/>
<path d="M21 16C21 15.45 20.55 15 20 15H12C11.45 15 11 15.45 11 16C11 16.55 11.45 17 12 17H20C20.55 17 21 16.55 21 16Z" fill="#242525"/>
</svg>
