<svg width="53" height="56" viewBox="0 0 53 56" fill="none" xmlns="http://www.w3.org/2000/svg">
<path d="M19.54 23.86C19.54 22.74 20.42 21.86 21.54 21.86H31.62C32.72 21.86 33.62 22.74 33.62 23.86V23.9399H34.3199H34.36H40.98V5.35999C40.98 2.40002 38.5601 0 35.62 0H5.35999C2.40002 0 0 2.40002 0 5.35999V42.34C0 45.2999 2.40002 47.7 5.35999 47.7H20.9399V36.6799C20.12 36.4199 19.54 35.6799 19.54 34.78C19.54 33.88 20.12 33.14 20.9399 32.88V31.9399C20.9399 29.5 22.02 27.3199 23.74 25.86H21.54C20.42 25.86 19.54 24.96 19.54 23.86ZM21.54 10.9199H31.62C32.72 10.9199 33.62 11.8199 33.62 12.9199C33.62 14.0399 32.72 14.9199 31.62 14.9199H21.54C20.42 14.9199 19.54 14.0399 19.54 12.9199C19.54 11.8199 20.42 10.9199 21.54 10.9199ZM16.54 34.38L12.92 38C12.54 38.4 12.02 38.58 11.5 38.58C11 38.58 10.48 38.4 10.1 38L8.04004 35.9399C7.26001 35.1599 7.26001 33.9 8.04004 33.12C8.81995 32.34 10.08 32.34 10.86 33.12L11.5 33.76L13.72 31.5599C14.5 30.78 15.76 30.78 16.54 31.5599C17.3199 32.34 17.3199 33.6 16.54 34.38ZM16.54 23.46L12.92 27.08C12.54 27.46 12.02 27.6599 11.5 27.6599C11 27.6599 10.48 27.46 10.1 27.08L8.04004 25.02C7.26001 24.24 7.26001 22.98 8.04004 22.1799C8.81995 21.4 10.08 21.4 10.86 22.1799L11.5 22.84L13.72 20.62C14.5 19.84 15.76 19.84 16.54 20.62C17.3199 21.4199 17.3199 22.6799 16.54 23.46ZM16.54 12.5399L12.92 16.14C12.54 16.5399 12.02 16.74 11.5 16.74C11 16.74 10.48 16.5399 10.1 16.1599L8.04004 14.1C7.26001 13.3199 7.26001 12.0399 8.04004 11.26C8.81995 10.48 10.08 10.48 10.86 11.26L11.5 11.9L13.72 9.69995C14.5 8.91992 15.76 8.91992 16.54 9.69995C17.3199 10.48 17.3199 11.76 16.54 12.5399Z" fill="#242525"/>
<path d="M36.3604 37.8199L37.4204 37.1599C38.4204 36.62 39.5204 36.62 40.4403 37.1L41.6003 37.8199V27.9399H36.3604V37.8199Z" fill="#8D5E2F"/>
<path d="M49.0195 27.9399H45.5995V39.58C45.5995 40.6599 45.0195 41.6599 44.0995 42.1799C43.6395 42.46 43.1195 42.58 42.5995 42.58C42.0795 42.58 41.5396 42.46 41.0795 42.1799L38.9795 40.9L36.8995 42.1599C35.9395 42.72 34.7795 42.72 33.8595 42.1799C32.9196 41.6599 32.3595 40.6599 32.3595 39.58V27.9399H28.9395C26.7395 27.9399 24.9395 29.72 24.9395 31.9399V32.78V52C24.9395 54.2 26.7395 56 28.9395 56H49.0195C51.2195 56 52.9995 54.2 52.9995 52V31.9399C52.9995 29.72 51.2195 27.9399 49.0195 27.9399Z" fill="#8D5E2F"/>
</svg>
