<svg width="17" height="18" viewBox="0 0 17 18" fill="none" xmlns="http://www.w3.org/2000/svg">
<path d="M14.6829 8.51478C14.5099 8.51478 14.344 8.44607 14.2217 8.32377C14.0994 8.20146 14.0307 8.03558 14.0307 7.86261V6.02087C14.0307 3.41217 11.6203 1.32522 8.65678 1.32522C5.6933 1.32522 3.28286 3.43826 3.28286 6.02087V7.86261C3.28286 8.03558 3.21415 8.20146 3.09185 8.32377C2.96954 8.44607 2.80366 8.51478 2.63069 8.51478C2.45772 8.51478 2.29184 8.44607 2.16953 8.32377C2.04723 8.20146 1.97852 8.03558 1.97852 7.86261V6.02087C1.97852 2.70261 4.97852 0 8.65678 0C12.335 0 15.335 2.70261 15.335 6.02087V7.86261C15.3357 7.94845 15.3193 8.03357 15.2868 8.113C15.2543 8.19244 15.2063 8.26462 15.1456 8.32531C15.0849 8.38601 15.0127 8.43403 14.9333 8.46655C14.8538 8.49908 14.7687 8.51548 14.6829 8.51478Z" fill="white"/>
<path d="M12.92 14.6513C12.7471 14.6513 12.5812 14.5826 12.4589 14.4603C12.3366 14.338 12.2679 14.1721 12.2679 13.9992V7.80611C12.2733 7.63678 12.3444 7.47621 12.4661 7.35839C12.5878 7.24056 12.7506 7.17472 12.92 7.1748C15.1687 7.1748 17 8.86002 17 10.9261C17 12.9922 15.1687 14.6513 12.92 14.6513ZM13.5722 8.52611V13.2792C14.1432 13.1846 14.6647 12.8976 15.05 12.4658C15.4353 12.0339 15.6613 11.4833 15.6905 10.9052C15.6625 10.3263 15.437 9.77442 15.0516 9.34152C14.6661 8.90863 14.144 8.62084 13.5722 8.52611ZM4.37395 14.6513C2.12525 14.6513 0.293945 12.9713 0.293945 10.9052C0.293945 8.83915 2.12525 7.1748 4.37395 7.1748C4.54691 7.1748 4.7128 7.24352 4.8351 7.36582C4.95741 7.48813 5.02612 7.65401 5.02612 7.82698V13.9992C5.02612 14.1721 4.95741 14.338 4.8351 14.4603C4.7128 14.5826 4.54691 14.6513 4.37395 14.6513ZM3.72177 8.52611C3.14995 8.62084 2.62784 8.90863 2.24241 9.34152C1.85698 9.77442 1.63149 10.3263 1.60351 10.9052C1.63265 11.4833 1.85866 12.0339 2.24399 12.4658C2.62932 12.8976 3.15079 13.1846 3.72177 13.2792V8.52611Z" fill="white"/>
<path d="M12.7067 16.7734H10.5467C10.3737 16.7734 10.2079 16.7046 10.0855 16.5823C9.96324 16.46 9.89453 16.2942 9.89453 16.1212C9.89453 15.9482 9.96324 15.7823 10.0855 15.66C10.2079 15.5377 10.3737 15.469 10.5467 15.469H12.7067C13.0443 15.469 13.3681 15.3349 13.6069 15.0961C13.8456 14.8574 13.9797 14.5336 13.9797 14.196V13.909C13.9797 13.736 14.0485 13.5702 14.1708 13.4479C14.2931 13.3255 14.459 13.2568 14.6319 13.2568C14.8049 13.2568 14.9708 13.3255 15.0931 13.4479C15.2154 13.5702 15.2841 13.736 15.2841 13.909V14.196C15.2841 14.8795 15.0126 15.5351 14.5292 16.0185C14.0458 16.5018 13.3903 16.7734 12.7067 16.7734Z" fill="white"/>
<path d="M9.42851 18.0008H8.13982C7.66658 18.0008 7.21272 17.8128 6.87809 17.4782C6.54346 17.1435 6.35547 16.6897 6.35547 16.2164V16.1434C6.35685 15.6711 6.54545 15.2185 6.87993 14.885C7.21441 14.5515 7.66748 14.3643 8.13982 14.3643H9.42851C9.90037 14.3643 10.3529 14.5517 10.6865 14.8854C11.0202 15.219 11.2076 15.6715 11.2076 16.1434V16.2164C11.2076 16.6888 11.0204 17.1418 10.6869 17.4763C10.3534 17.8108 9.90085 17.9994 9.42851 18.0008ZM8.15025 15.6686C8.02385 15.6686 7.90254 15.7185 7.81267 15.8073C7.7228 15.8962 7.67163 16.017 7.67025 16.1434V16.2164C7.67025 16.3437 7.72082 16.4658 7.81084 16.5558C7.90086 16.6459 8.02295 16.6964 8.15025 16.6964H9.42851C9.55491 16.6951 9.67566 16.6439 9.76456 16.554C9.85345 16.4641 9.9033 16.3428 9.90329 16.2164V16.1434C9.90329 16.0175 9.85327 15.8967 9.76423 15.8077C9.6752 15.7186 9.55443 15.6686 9.42851 15.6686H8.15025Z" fill="white"/>
</svg>
