<svg width="145" height="55" viewBox="0 0 145 55" fill="none" xmlns="http://www.w3.org/2000/svg">
<path d="M144.29 52.9804C144.318 53.532 143.893 54.0017 143.342 54.0295C142.79 54.0573 142.321 53.6326 142.293 53.0811L144.29 52.9804ZM78.4298 2.4606L78.4135 1.46073L78.4135 1.46073L78.4298 2.4606ZM45.0874 18.7552L44.1268 18.4771L45.0874 18.7552ZM55.9194 45.4004L56.3766 44.511L55.9194 45.4004ZM73.2938 44.7854L73.9639 45.5277L73.2938 44.7854ZM71.9019 18.17L71.0799 18.7395L71.9019 18.17ZM0.173925 10.7464L6.05811 0.811135L11.7202 10.8746L0.173925 10.7464ZM141.993 49.9943C141.915 49.4476 142.294 48.9408 142.841 48.8623C143.388 48.7838 143.894 49.1634 143.973 49.71L141.993 49.9943ZM142.478 43.3313C142.649 43.8564 142.362 44.4208 141.836 44.5918C141.311 44.7628 140.747 44.4758 140.576 43.9507L142.478 43.3313ZM138.192 38.1938C137.943 37.7006 138.142 37.0993 138.635 36.8508C139.128 36.6023 139.73 36.8007 139.978 37.294L138.192 38.1938ZM136.663 31.687C136.974 32.1435 136.856 32.7656 136.4 33.0765C135.944 33.3874 135.321 33.2694 135.011 32.813L136.663 31.687ZM131.183 27.8434C130.822 27.4254 130.868 26.7939 131.286 26.433C131.704 26.0721 132.336 26.1185 132.696 26.5365L131.183 27.8434ZM128.211 21.8502C128.612 22.2298 128.63 22.8627 128.25 23.2639C127.87 23.665 127.238 23.6825 126.836 23.3029L128.211 21.8502ZM122.069 19.1933C121.635 18.8519 121.56 18.2232 121.901 17.7891C122.243 17.355 122.871 17.2798 123.305 17.6212L122.069 19.1933ZM118.051 13.8428C118.512 14.146 118.641 14.766 118.337 15.2276C118.034 15.6892 117.414 15.8177 116.953 15.5145L118.051 13.8428ZM111.544 12.2729C111.059 12.0085 110.88 11.4011 111.145 10.9162C111.409 10.4313 112.017 10.2525 112.501 10.5168L111.544 12.2729ZM106.701 7.65411C107.206 7.87815 107.433 8.469 107.209 8.9738C106.985 9.4786 106.395 9.70619 105.89 9.48214L106.701 7.65411ZM100.027 7.16571C99.5057 6.98448 99.2297 6.41464 99.4109 5.89293C99.5922 5.37123 100.162 5.09523 100.684 5.27646L100.027 7.16571ZM94.4796 3.41972C95.0152 3.55433 95.3403 4.09767 95.2057 4.6333C95.0711 5.16893 94.5277 5.49402 93.9921 5.35941L94.4796 3.41972ZM87.8252 4.11549C87.2791 4.03282 86.9035 3.52313 86.9861 2.97707C87.0688 2.43101 87.5785 2.05535 88.1246 2.13802L87.8252 4.11549ZM81.6641 1.50504C82.2159 1.52872 82.644 1.99522 82.6203 2.547C82.5966 3.09878 82.1301 3.52688 81.5783 3.5032L81.6641 1.50504ZM75.2562 3.61977C74.7058 3.66494 74.223 3.25535 74.1778 2.70491C74.1326 2.15448 74.5422 1.67165 75.0926 1.62647L75.2562 3.61977ZM68.5203 2.55428C69.062 2.44629 69.5886 2.79782 69.6966 3.33945C69.8046 3.88107 69.453 4.40769 68.9114 4.51568L68.5203 2.55428ZM62.71 6.12397C62.1845 6.29395 61.6207 6.00577 61.4508 5.4803C61.2808 4.95482 61.569 4.39104 62.0944 4.22106L62.71 6.12397ZM55.9085 6.69584C56.4046 6.45312 57.0035 6.65851 57.2463 7.15459C57.489 7.65068 57.2836 8.24961 56.7875 8.49233L55.9085 6.69584ZM51.4169 11.7936C50.982 12.1341 50.3535 12.0576 50.013 11.6227C49.6725 11.1879 49.749 10.5594 50.1839 10.2189L51.4169 11.7936ZM45.5527 15.2639C45.8393 14.7918 46.4544 14.6415 46.9265 14.9281C47.3986 15.2148 47.5489 15.8298 47.2622 16.3019L45.5527 15.2639ZM45.4554 21.4903C45.3507 22.0326 44.8262 22.3873 44.284 22.2827C43.7417 22.178 43.3869 21.6536 43.4916 21.1113L45.4554 21.4903ZM42.9885 26.518C42.9832 25.9657 43.4266 25.5137 43.9788 25.5084C44.5311 25.5032 44.9831 25.9466 44.9884 26.4988L42.9885 26.518ZM45.5991 31.457C45.7311 31.9932 45.4034 32.535 44.8672 32.667C44.3309 32.7991 43.7891 32.4714 43.6571 31.9351L45.5991 31.457ZM45.6387 37.0469C45.3733 36.5625 45.5508 35.9548 46.0351 35.6894C46.5194 35.424 47.1272 35.6014 47.3926 36.0858L45.6387 37.0469ZM50.3317 40.0837C50.7138 40.4825 50.7002 41.1155 50.3014 41.4976C49.9026 41.8796 49.2695 41.866 48.8875 41.4672L50.3317 40.0837ZM53.1063 44.9294C52.6426 44.6294 52.5099 44.0103 52.8099 43.5466C53.11 43.0829 53.7291 42.9502 54.1928 43.2503L53.1063 44.9294ZM58.4002 45.4396C58.9123 45.6464 59.1598 46.2292 58.9531 46.7413C58.7463 47.2534 58.1635 47.5009 57.6514 47.2941L58.4002 45.4396ZM62.3157 48.6221C61.7705 48.534 61.4 48.0206 61.4881 47.4753C61.5762 46.9301 62.0897 46.5596 62.6349 46.6477L62.3157 48.6221ZM66.9444 46.7116C67.4906 46.6299 67.9996 47.0065 68.0813 47.5527C68.1629 48.0989 67.7864 48.6079 67.2401 48.6896L66.9444 46.7116ZM71.9483 47.0221C71.4745 47.3058 70.8604 47.1516 70.5767 46.6777C70.2931 46.2039 70.4473 45.5897 70.9211 45.3061L71.9483 47.0221ZM74.699 41.4906C74.9772 41.0135 75.5894 40.8522 76.0666 41.1304C76.5437 41.4085 76.705 42.0208 76.4268 42.4979L74.699 41.4906ZM78.3841 35.1132C78.3684 35.6653 77.9081 36.1001 77.356 36.0843C76.804 36.0686 76.3692 35.6083 76.3849 35.0563L78.3841 35.1132ZM75.4775 28.2153C75.3313 27.6828 75.6444 27.1324 76.177 26.9862C76.7095 26.8399 77.2598 27.153 77.4061 27.6856L75.4775 28.2153ZM74.6552 20.787C74.9139 21.2749 74.7281 21.8802 74.2401 22.1389C73.7522 22.3976 73.1469 22.2118 72.8882 21.7238L74.6552 20.787ZM69.1628 16.2963C68.7968 15.8827 68.8354 15.2507 69.249 14.8847C69.6626 14.5187 70.2946 14.5573 70.6606 14.9709L69.1628 16.2963ZM65.7177 10.5183C66.1657 10.8414 66.2669 11.4664 65.9438 11.9143C65.6207 12.3622 64.9957 12.4635 64.5478 12.1404L65.7177 10.5183ZM59.1509 8.9878C58.6511 8.75289 58.4363 8.15726 58.6712 7.65742C58.9061 7.15759 59.5018 6.94282 60.0016 7.17774L59.1509 8.9878ZM53.8417 4.84008C54.3707 4.99895 54.6707 5.55653 54.5118 6.08547C54.3529 6.61441 53.7954 6.91442 53.2664 6.75556L53.8417 4.84008ZM47.1075 5.30671C46.5636 5.2107 46.2005 4.69197 46.2965 4.1481C46.3926 3.60422 46.9113 3.24116 47.4552 3.33717L47.1075 5.30671ZM40.9676 2.51738C41.5181 2.5613 41.9288 3.04321 41.8849 3.59374C41.8409 4.14428 41.359 4.55497 40.8085 4.51104L40.9676 2.51738ZM34.4479 4.26647C33.8956 4.26691 33.4475 3.81955 33.4471 3.26726C33.4466 2.71498 33.894 2.26691 34.4463 2.26648L34.4479 4.26647ZM27.9329 2.50782C28.4837 2.46796 28.9626 2.88219 29.0024 3.43304C29.0423 3.98388 28.6281 4.46274 28.0772 4.5026L27.9329 2.50782ZM21.732 5.17901C21.1852 5.25608 20.6793 4.87522 20.6023 4.32834C20.5252 3.78146 20.9061 3.27565 21.4529 3.19858L21.732 5.17901ZM15.0364 4.33088C15.5765 4.21548 16.1079 4.55977 16.2233 5.09986C16.3387 5.63996 15.9944 6.17134 15.4543 6.28674L15.0364 4.33088ZM9.29709 7.86611C8.76884 8.02724 8.20998 7.72962 8.04885 7.20137C7.88771 6.67311 8.18533 6.11425 8.71359 5.95312L9.29709 7.86611ZM2.53788 8.27191C3.03743 8.03638 3.63332 8.25041 3.86885 8.74996C4.10436 9.2495 3.89034 9.8454 3.3908 10.0809L2.53788 8.27191ZM142.293 53.0811C142.241 52.0465 142.14 51.0172 141.993 49.9943L143.973 49.71C144.128 50.7928 144.235 51.8833 144.29 52.9804L142.293 53.0811ZM140.576 43.9507C139.939 41.9966 139.14 40.0747 138.192 38.1938L139.978 37.294C140.968 39.2598 141.808 41.2752 142.478 43.3313L140.576 43.9507ZM135.011 32.813C133.849 31.108 132.568 29.4489 131.183 27.8434L132.696 26.5365C134.129 28.1964 135.457 29.9157 136.663 31.687L135.011 32.813ZM126.836 23.3029C125.326 21.8738 123.733 20.5016 122.069 19.1933L123.305 17.6212C125.015 18.9659 126.655 20.3778 128.211 21.8502L126.836 23.3029ZM116.953 15.5145C115.2 14.3637 113.394 13.2811 111.544 12.2729L112.501 10.5168C114.398 11.551 116.252 12.6617 118.051 13.8428L116.953 15.5145ZM105.89 9.48214C103.962 8.62636 102.003 7.85213 100.027 7.16571L100.684 5.27646C102.713 5.98141 104.723 6.77613 106.701 7.65411L105.89 9.48214ZM93.9921 5.35941C91.9369 4.8429 89.8768 4.42608 87.8252 4.11549L88.1246 2.13802C90.2419 2.45857 92.3648 2.88825 94.4796 3.41972L93.9921 5.35941ZM81.5783 3.5032C80.5275 3.45811 79.4828 3.44357 78.4461 3.46047L78.4135 1.46073C79.4907 1.44317 80.5749 1.4583 81.6641 1.50504L81.5783 3.5032ZM78.4461 3.46047C77.4094 3.47737 76.3427 3.5306 75.2562 3.61977L75.0926 1.62647C76.2206 1.5339 77.331 1.47838 78.4135 1.46073L78.4461 3.46047ZM68.9114 4.51568C66.819 4.93286 64.7302 5.47046 62.71 6.12397L62.0944 4.22106C64.1922 3.54248 66.3561 2.98579 68.5203 2.55428L68.9114 4.51568ZM56.7875 8.49233C54.7954 9.46704 52.9787 10.5707 51.4169 11.7936L50.1839 10.2189C51.8754 8.8944 53.8158 7.71979 55.9085 6.69584L56.7875 8.49233ZM47.2622 16.3019C46.7305 17.1776 46.3216 18.0882 46.0479 19.0333L44.1268 18.4771C44.4535 17.3488 44.9374 16.2772 45.5527 15.2639L47.2622 16.3019ZM46.0479 19.0333C45.813 19.8446 45.6146 20.665 45.4554 21.4903L43.4916 21.1113C43.6627 20.2249 43.8754 19.3454 44.1268 18.4771L46.0479 19.0333ZM44.9884 26.4988C45.0044 28.1789 45.2016 29.8426 45.5991 31.457L43.6571 31.9351C43.2201 30.1601 43.0059 28.3416 42.9885 26.518L44.9884 26.4988ZM47.3926 36.0858C48.1652 37.4957 49.1381 38.8378 50.3317 40.0837L48.8875 41.4672C47.572 40.094 46.4951 38.6098 45.6387 37.0469L47.3926 36.0858ZM54.1928 43.2503C54.8764 43.6926 55.6038 44.1137 56.3766 44.511L55.4621 46.2897C54.6321 45.8629 53.8472 45.4088 53.1063 44.9294L54.1928 43.2503ZM56.3766 44.511C57.0446 44.8545 57.7206 45.1652 58.4002 45.4396L57.6514 47.2941C56.9129 46.9959 56.1817 46.6597 55.4621 46.2897L56.3766 44.511ZM62.6349 46.6477C64.1163 46.8872 65.5654 46.9178 66.9444 46.7116L67.2401 48.6896C65.6301 48.9304 63.9718 48.8898 62.3157 48.6221L62.6349 46.6477ZM70.9211 45.3061C71.5108 44.9531 72.0799 44.534 72.6238 44.043L73.9639 45.5277C73.3246 46.1047 72.6509 46.6016 71.9483 47.0221L70.9211 45.3061ZM72.6238 44.043C73.4726 43.2769 74.1576 42.4194 74.699 41.4906L76.4268 42.4979C75.7838 43.6008 74.9692 44.6203 73.9639 45.5277L72.6238 44.043ZM76.3849 35.0563C76.448 32.8412 76.1071 30.5074 75.4775 28.2153L77.4061 27.6856C78.0766 30.1265 78.4539 32.6608 78.3841 35.1132L76.3849 35.0563ZM72.8882 21.7238C72.3204 20.6529 71.7106 19.6498 71.0799 18.7395L72.7239 17.6005C73.4019 18.5791 74.0524 19.65 74.6552 20.787L72.8882 21.7238ZM71.0799 18.7395C70.4844 17.88 69.8441 17.0663 69.1628 16.2963L70.6606 14.9709C71.3934 15.7991 72.0826 16.675 72.7239 17.6005L71.0799 18.7395ZM64.5478 12.1404C62.8773 10.9355 61.0688 9.88916 59.1509 8.9878L60.0016 7.17774C62.0204 8.12654 63.9375 9.23421 65.7177 10.5183L64.5478 12.1404ZM53.2664 6.75556C51.2745 6.15729 49.2128 5.67837 47.1075 5.30671L47.4552 3.33717C49.6295 3.72101 51.7678 4.21719 53.8417 4.84008L53.2664 6.75556ZM40.8085 4.51104C38.6943 4.34236 36.5657 4.26481 34.4479 4.26647L34.4463 2.26648C36.6137 2.26477 38.796 2.34412 40.9676 2.51738L40.8085 4.51104ZM28.0772 4.5026C25.911 4.65936 23.7862 4.88951 21.732 5.17901L21.4529 3.19858C23.5505 2.90297 25.7202 2.66793 27.9329 2.50782L28.0772 4.5026ZM15.4543 6.28674C13.2401 6.75983 11.1717 7.29432 9.29709 7.86611L8.71359 5.95312C10.6471 5.36336 12.771 4.8149 15.0364 4.33088L15.4543 6.28674Z" fill="white"/>
</svg>
